<?xml version="1.0" encoding="UTF-8" standalone="no"?>
<svg width="340px" height="116px" viewBox="0 0 340 116" version="1.1" xmlns="http://www.w3.org/2000/svg" xmlns:xlink="http://www.w3.org/1999/xlink" xmlns:sketch="http://www.bohemiancoding.com/sketch/ns">
    <!-- Generator: Sketch 3.3 (11970) - http://www.bohemiancoding.com/sketch -->
    <title>app store icon</title>
    <desc>Created with Sketch.</desc>
    <defs></defs>
    <g id="Welcome" stroke="none" stroke-width="1" fill="none" fill-rule="evenodd" sketch:type="MSPage">
        <g id="iOS-splash-v2" sketch:type="MSArtboardGroup" transform="translate(-72.000000, -435.000000)">
            <g id="app-store-icon-+-google-play" sketch:type="MSLayerGroup" transform="translate(72.000000, 435.119403)">
                <g id="app-store-icon" sketch:type="MSShapeGroup">
                    <path d="M330.204489,115.003093 L9.88959209,115.003093 C4.47991107,115.003093 0.0888533392,109.844087 0.0888533392,103.475093 L0.0888533392,11.5430502 C0.0888533392,5.17706554 4.47991107,0 9.88959209,0 L330.201936,0 C335.616723,0 339.98991,5.17706554 339.98991,11.5430502 L339.992463,103.475093 C339.992463,109.844087 335.616723,115.003093 330.204489,115.003093 Z" id="Fill-2" fill="#000000"></path>
                    <path d="M70.5570517,56.9322813 C70.4812696,48.4381049 77.4532229,44.3056604 77.7720304,44.1132698 C73.8235216,38.3072908 67.7034637,37.514009 65.5528199,37.4507573 C60.4127029,36.9052114 55.4267633,40.5527261 52.808361,40.5527261 C50.1376952,40.5527261 46.1055648,37.503467 41.7598533,37.5930736 C36.1676569,37.6800447 30.9360787,40.9454138 28.0668116,46.0160918 C22.145355,56.3551095 26.5616223,71.5486952 32.2348271,79.9058263 C35.0727362,83.9987384 38.3888564,88.5686739 42.7293416,88.4079091 C46.9757524,88.2313315 48.5619502,85.677544 53.6863881,85.677544 C58.7637889,85.677544 60.2532992,88.4079091 64.6800191,88.3051251 C69.2373979,88.2313315 72.106665,84.1937645 74.8452734,80.0639555 C78.1248091,75.3727877 79.4418498,70.752778 79.4941133,70.5155841 C79.3869731,70.4786873 70.6432865,67.1131697 70.5570517,56.9322813" id="Fill-3" fill="#FFFFFF"></path>
                    <path d="M62.1948889,31.9531303 C64.4788046,29.0725424 66.0414838,25.1535724 65.6076966,21.1766217 C62.3020291,21.324209 58.1679848,23.4826733 55.7873815,26.3000095 C53.6811618,28.7826387 51.7996751,32.8518315 52.2857258,36.6785594 C55.9990488,36.9579211 59.8116724,34.7889149 62.1948889,31.9531303" id="Fill-4" fill="#FFFFFF"></path>
                    <path d="M132.011109,87.8201954 L126.076587,87.8201954 L122.825796,77.5180746 L111.526424,77.5180746 L108.42981,87.8201954 L102.652078,87.8201954 L113.846924,52.747127 L120.761387,52.747127 L132.011109,87.8201954 L132.011109,87.8201954 Z M121.845855,73.195875 L118.906032,64.0375557 C118.595064,63.1019576 118.012326,60.89869 117.152591,57.4303884 L117.048064,57.4303884 C116.705738,58.9220744 116.154358,61.125342 115.396537,64.0375557 L112.508978,73.195875 L121.845855,73.195875 L121.845855,73.195875 Z" id="Fill-5" fill="#FFFFFF"></path>
                    <path d="M160.800468,74.8641386 C160.800468,79.1652543 159.648058,82.5650332 157.343237,85.0608399 C155.278828,87.2825559 152.715302,88.3920962 149.655273,88.3920962 C146.352219,88.3920962 143.979455,87.1955848 142.534369,84.8025621 L142.429842,84.8025621 L142.429842,98.1249517 L136.858551,98.1249517 L136.858551,70.855562 C136.858551,68.1515518 136.787995,65.3763834 136.65211,62.5300568 L141.551815,62.5300568 L141.862783,66.5386334 L141.96731,66.5386334 C143.825278,63.5183647 146.644894,62.0108658 150.428773,62.0108658 C153.386888,62.0108658 155.85634,63.1889287 157.8319,65.5476901 C159.812688,67.9090869 160.800468,71.0136913 160.800468,74.8641386 L160.800468,74.8641386 Z M155.12465,75.0697066 C155.12465,72.6081612 154.575883,70.5788358 153.473123,68.9817304 C152.268449,67.3161022 150.650893,66.4832882 148.623069,66.4832882 C147.248538,66.4832882 145.99944,66.947134 144.883614,67.8616482 C143.765175,68.7840688 143.033485,69.9884866 142.691159,71.4801726 C142.51869,72.1759413 142.432455,72.7452066 142.432455,73.1932395 L142.432455,77.4100196 C142.432455,79.2495899 142.991675,80.801892 144.110114,82.0695616 C145.228553,83.3372311 146.681479,83.9697481 148.468891,83.9697481 C150.567271,83.9697481 152.200506,83.1527469 153.368596,81.5240156 C154.539299,79.8926488 155.12465,77.742091 155.12465,75.0697066 L155.12465,75.0697066 Z" id="Fill-6" fill="#FFFFFF"></path>
                    <path d="M189.642091,74.8641386 C189.642091,79.1652543 188.48968,82.5650332 186.182246,85.0608399 C184.12045,87.2825559 181.556924,88.3920962 178.496896,88.3920962 C175.193841,88.3920962 172.821077,87.1955848 171.378604,84.8025621 L171.274077,84.8025621 L171.274077,98.1249517 L165.702786,98.1249517 L165.702786,70.855562 C165.702786,68.1515518 165.632231,65.3763834 165.496345,62.5300568 L170.39605,62.5300568 L170.707018,66.5386334 L170.811545,66.5386334 C172.6669,63.5183647 175.486517,62.0108658 179.273009,62.0108658 C182.228511,62.0108658 184.697962,63.1889287 186.678749,65.5476901 C188.651697,67.9090869 189.642091,71.0136913 189.642091,74.8641386 L189.642091,74.8641386 Z M183.966273,75.0697066 C183.966273,72.6081612 183.414893,70.5788358 182.312132,68.9817304 C181.107458,67.3161022 179.495129,66.4832882 177.464691,66.4832882 C176.087547,66.4832882 174.841062,66.947134 173.722623,67.8616482 C172.604184,68.7840688 171.875108,69.9884866 171.532782,71.4801726 C171.362925,72.1759413 171.274077,72.7452066 171.274077,73.1932395 L171.274077,77.4100196 C171.274077,79.2495899 171.833297,80.801892 172.94651,82.0695616 C174.064949,83.3345956 175.517875,83.9697481 177.310514,83.9697481 C179.408894,83.9697481 181.042129,83.1527469 182.210218,81.5240156 C183.380921,79.8926488 183.966273,77.742091 183.966273,75.0697066 L183.966273,75.0697066 Z" id="Fill-7" fill="#FFFFFF"></path>
                    <path d="M221.888681,77.9845558 C221.888681,80.9679278 220.861703,83.3952118 218.799907,85.2690434 C216.534284,87.3168173 213.380181,88.3393864 209.327145,88.3393864 C205.585077,88.3393864 202.585151,87.6119919 200.314301,86.1545673 L201.60521,81.4713059 C204.051143,82.9629918 206.734874,83.7114703 209.659018,83.7114703 C211.757398,83.7114703 213.390633,83.2318116 214.563949,82.2777651 C215.732039,81.3237186 216.314777,80.0428716 216.314777,78.4457662 C216.314777,77.0226029 215.833953,75.8234561 214.869691,74.8509611 C213.910655,73.8784662 212.308778,72.974494 210.0719,72.1390445 C203.9832,69.8488058 200.941463,66.4938301 200.941463,62.082024 C200.941463,59.1988006 202.007639,56.8347682 204.142604,54.9951979 C206.269729,53.1529921 209.107638,52.233207 212.656331,52.233207 C215.820887,52.233207 218.449742,52.7892948 220.548122,53.8988351 L219.155299,58.4793125 C217.195417,57.4040336 214.979444,56.8663941 212.49954,56.8663941 C210.539658,56.8663941 209.008337,57.3539593 207.910803,58.3238187 C206.983126,59.1908941 206.517981,60.2477246 206.517981,61.4995812 C206.517981,62.8858477 207.048455,64.0322847 208.114631,64.9336215 C209.042309,65.7664356 210.727807,66.6677723 213.17374,67.6402672 C216.165826,68.855227 218.363507,70.2757548 219.777235,71.9044861 C221.185737,73.5279464 221.888681,75.5599073 221.888681,77.9845558" id="Fill-8" fill="#FFFFFF"></path>
                    <path d="M240.308958,66.7468369 L234.167995,66.7468369 L234.167995,79.0255734 C234.167995,82.1486262 235.24985,83.7088348 237.418786,83.7088348 C238.414406,83.7088348 239.240169,83.6218637 239.893463,83.4479215 L240.047641,87.7147759 C238.950107,88.1285474 237.505021,88.336751 235.714995,88.336751 C233.514701,88.336751 231.795231,87.6594307 230.553973,86.3074255 C229.31794,84.9527849 228.696005,82.6809947 228.696005,79.4894192 L228.696005,66.741566 L225.037558,66.741566 L225.037558,62.5247859 L228.696005,62.5247859 L228.696005,57.8942342 L234.167995,56.2286061 L234.167995,62.5247859 L240.308958,62.5247859 L240.308958,66.7468369" id="Fill-9" fill="#FFFFFF"></path>
                    <path d="M268.016462,74.9669226 C268.016462,78.8542667 266.913702,82.0458422 264.713408,84.5416489 C262.405974,87.1112492 259.343332,88.3920962 255.525482,88.3920962 C251.84613,88.3920962 248.91676,87.1613235 246.732145,84.6997781 C244.54753,82.2382328 243.455222,79.1309929 243.455222,75.3859651 C243.455222,71.4669951 244.578888,68.2569713 246.834058,65.7611646 C249.084003,63.2627224 252.120513,62.0135013 255.938363,62.0135013 C259.617715,62.0135013 262.578443,63.244274 264.812709,65.7084548 C266.950287,68.098842 268.016462,71.184998 268.016462,74.9669226 L268.016462,74.9669226 Z M262.236117,75.1487712 C262.236117,72.8163648 261.742227,70.8160297 260.741381,69.1477661 C259.573291,67.1289826 257.903472,66.1222264 255.739762,66.1222264 C253.50027,66.1222264 251.799093,67.1316181 250.631003,69.1477661 C249.630157,70.8186652 249.136266,72.8506261 249.136266,75.2541907 C249.136266,77.5865972 249.630157,79.5869323 250.631003,81.2525604 C251.835677,83.2713439 253.518562,84.2781001 255.690112,84.2781001 C257.817237,84.2781001 259.487056,83.25026 260.69173,81.1998507 C261.718708,79.4999612 262.236117,77.4785422 262.236117,75.1487712 L262.236117,75.1487712 Z" id="Fill-10" fill="#FFFFFF"></path>
                    <path d="M286.125771,67.471596 C285.574391,67.368812 284.986427,67.3161022 284.369717,67.3161022 C282.409835,67.3161022 280.894193,68.0619452 279.828017,69.5562667 C278.90034,70.8740104 278.435195,72.5396386 278.435195,74.5505156 L278.435195,87.8201954 L272.866517,87.8201954 L272.91878,70.4945002 C272.91878,67.579651 272.848225,64.925715 272.709726,62.5326923 L277.562394,62.5326923 L277.766222,67.3714475 L277.920399,67.3714475 C278.508364,65.7084548 279.436041,64.3696272 280.706045,63.3655064 C281.947303,62.4615342 283.287862,62.0108658 284.732949,62.0108658 C285.247744,62.0108658 285.71289,62.0477626 286.125771,62.1136498 L286.125771,67.471596" id="Fill-11" fill="#FFFFFF"></path>
                    <path d="M311.042404,73.9786148 C311.042404,74.985371 310.977074,75.833998 310.838576,76.5271312 L294.124703,76.5271312 C294.190032,79.0255734 294.997504,80.9363019 296.54973,82.2540457 C297.958232,83.4321086 299.779615,84.0224578 302.016494,84.0224578 C304.491172,84.0224578 306.748956,83.6244992 308.779393,82.8259465 L309.652194,86.7264681 C307.27943,87.7701211 304.478106,88.2893122 301.245607,88.2893122 C297.357201,88.2893122 294.305012,87.1349686 292.083812,84.828917 C289.867839,82.5228654 288.757239,79.4261675 288.757239,75.5414589 C288.757239,71.7279084 289.789444,68.5521459 291.856466,66.0194424 C294.020176,63.3154321 296.94432,61.963427 300.623671,61.963427 C304.237694,61.963427 306.973689,63.3154321 308.831657,66.0194424 C310.302875,68.1673647 311.042404,70.8239362 311.042404,73.9786148 L311.042404,73.9786148 Z M305.729817,72.5211902 C305.766401,70.855562 305.40317,69.4165858 304.647962,68.2016261 C303.6837,66.6387819 302.202029,65.8586776 300.208176,65.8586776 C298.386793,65.8586776 296.905122,66.6203335 295.773617,68.1489163 C294.845939,69.3638761 294.294559,70.8213007 294.124703,72.5185547 L305.729817,72.5185547 L305.729817,72.5211902 L305.729817,72.5211902 Z" id="Fill-12" fill="#FFFFFF"></path>
                    <path d="M120.003566,31.1703905 C120.003566,34.2723593 119.081115,36.6074013 117.238826,38.1755164 C115.532422,39.622399 113.107395,40.3471581 109.966358,40.3471581 C108.408905,40.3471581 107.076185,40.2786354 105.960359,40.1415901 L105.960359,23.1927696 C107.415898,22.9555758 108.983803,22.8343433 110.677141,22.8343433 C113.669228,22.8343433 115.924399,23.4905797 117.445267,24.8030525 C119.149058,26.286832 120.003566,28.4083995 120.003566,31.1703905 L120.003566,31.1703905 Z M117.116007,31.2468196 C117.116007,29.2359426 116.588145,27.6941824 115.532422,26.6189035 C114.476699,25.54626 112.934925,25.0086206 110.904488,25.0086206 C110.04214,25.0086206 109.307837,25.0666013 108.698967,25.1878337 L108.698967,38.0727324 C109.036067,38.1254421 109.652776,38.1491615 110.549096,38.1491615 C112.644863,38.1491615 114.262419,37.5614478 115.401763,36.3860203 C116.541108,35.2105929 117.116007,33.497526 117.116007,31.2468196 L117.116007,31.2468196 Z" id="Fill-13" fill="#FFFFFF"></path>
                    <path d="M135.314164,33.8796717 C135.314164,35.7904001 134.773236,37.3558797 133.691382,38.5840169 C132.557263,39.8464155 131.054687,40.476297 129.178427,40.476297 C127.370109,40.476297 125.930249,39.8727704 124.856234,38.6604461 C123.784832,37.4507573 123.249131,35.92481 123.249131,34.0852397 C123.249131,32.1613338 123.800511,30.5826767 124.908497,29.357175 C126.016484,28.1316733 127.505994,27.5176047 129.382254,27.5176047 C131.190572,27.5176047 132.643498,28.1211314 133.743645,29.3308201 C134.788915,30.5062476 135.314164,32.0242884 135.314164,33.8796717 L135.314164,33.8796717 Z M132.473642,33.9692782 C132.473642,32.8228412 132.228003,31.8398043 131.739339,31.0201677 C131.16444,30.0292243 130.346516,29.5337527 129.282954,29.5337527 C128.182807,29.5337527 127.34659,30.0292243 126.771692,31.0201677 C126.280415,31.8398043 126.037389,32.8386541 126.037389,34.0193525 C126.037389,35.1657896 126.283028,36.1488264 126.771692,36.9684631 C127.364883,37.9594064 128.190646,38.4548781 129.256822,38.4548781 C130.302092,38.4548781 131.12263,37.9514999 131.713207,36.9421082 C132.220163,36.1066586 132.473642,35.1157153 132.473642,33.9692782 L132.473642,33.9692782 Z" id="Fill-14" fill="#FFFFFF"></path>
                    <path d="M155.843274,27.7706115 L151.988839,40.1942998 L149.48019,40.1942998 L147.88354,34.7994568 C147.478498,33.4527227 147.149237,32.113895 146.893146,30.7856093 L146.843496,30.7856093 C146.605697,32.1507918 146.276437,33.486984 145.853102,34.7994568 L144.157151,40.1942998 L141.619757,40.1942998 L137.995282,27.7706115 L140.809673,27.7706115 L142.202495,33.6767391 C142.539595,35.0735475 142.816592,36.4044687 143.038712,37.6642318 L143.088362,37.6642318 C143.29219,36.6258497 143.629289,35.3028349 144.104887,33.703094 L145.853102,27.773247 L148.084754,27.773247 L149.7598,33.5765906 C150.164842,34.9918474 150.494103,36.3543945 150.747581,37.6668673 L150.823363,37.6668673 C151.008898,36.3886558 151.288508,35.0261087 151.659579,33.5765906 L153.154316,27.773247 L155.843274,27.773247 L155.843274,27.7706115" id="Fill-15" fill="#FFFFFF"></path>
                    <path d="M170.040658,40.1942998 L167.30205,40.1942998 L167.30205,33.0784834 C167.30205,30.8857578 166.476286,29.789395 164.819533,29.789395 C164.006835,29.789395 163.350928,30.0898406 162.841359,30.6933672 C162.337016,31.2968939 162.080924,32.0084755 162.080924,32.8228412 L162.080924,40.1916644 L159.342316,40.1916644 L159.342316,31.3206132 C159.342316,30.2295214 159.308345,29.0461875 159.243015,27.7653405 L161.64975,27.7653405 L161.777796,29.7076949 L161.853578,29.7076949 C162.172386,29.1041682 162.647984,28.6060611 163.272533,28.2081025 C164.014675,27.7442566 164.845665,27.5096982 165.75505,27.5096982 C166.904847,27.5096982 167.86127,27.8839375 168.621704,28.6350514 C169.567673,29.5548366 170.040658,30.9279256 170.040658,32.751683 L170.040658,40.1942998" id="Fill-16" fill="#FFFFFF"></path>
                    <path d="M174.856741,22.0700519 L177.592737,22.0700519 L177.592737,40.1942998 L174.856741,40.1942998 L174.856741,22.0700519 Z" id="Fill-17" fill="#FFFFFF"></path>
                    <path d="M193.716032,33.8796717 C193.716032,35.7904001 193.175105,37.3558797 192.09325,38.5840169 C190.959131,39.8464155 189.453942,40.476297 187.580295,40.476297 C185.769364,40.476297 184.329504,39.8727704 183.258102,38.6604461 C182.1867,37.4507573 181.650999,35.92481 181.650999,34.0852397 C181.650999,32.1613338 182.202379,30.5826767 183.310366,29.357175 C184.418352,28.1316733 185.907862,27.5176047 187.781509,27.5176047 C189.59244,27.5176047 191.042753,28.1211314 192.145513,29.3308201 C193.190784,30.5062476 193.716032,32.0242884 193.716032,33.8796717 L193.716032,33.8796717 Z M190.872897,33.9692782 C190.872897,32.8228412 190.627258,31.8398043 190.138594,31.0201677 C189.566309,30.0292243 188.745771,29.5337527 187.684822,29.5337527 C186.582062,29.5337527 185.745845,30.0292243 185.17356,31.0201677 C184.682283,31.8398043 184.439258,32.8386541 184.439258,34.0193525 C184.439258,35.1657896 184.684896,36.1488264 185.17356,36.9684631 C185.766751,37.9594064 186.592514,38.4548781 187.65869,38.4548781 C188.703961,38.4548781 189.521885,37.9514999 190.112462,36.9421082 C190.622032,36.1066586 190.872897,35.1157153 190.872897,33.9692782 L190.872897,33.9692782 Z" id="Fill-18" fill="#FFFFFF"></path>
                    <path d="M206.97006,40.1942998 L204.511062,40.1942998 L204.307234,38.7632301 L204.231452,38.7632301 C203.390009,39.9043962 202.190561,40.476297 200.633109,40.476297 C199.470245,40.476297 198.529502,40.0994223 197.821331,39.3509438 C197.17849,38.670988 196.857069,37.8249965 196.857069,36.8208758 C196.857069,35.3028349 197.484232,34.1458559 198.746396,33.3446677 C200.005946,32.5434795 201.77768,32.1507918 204.058982,32.1692402 L204.058982,31.9373173 C204.058982,30.3006796 203.207087,29.4836784 201.500683,29.4836784 C200.285556,29.4836784 199.214154,29.7920305 198.28909,30.4034636 L197.732483,28.5902481 C198.877054,27.876031 200.290783,27.5176047 201.957989,27.5176047 C205.177421,27.5176047 206.792364,29.2306716 206.792364,32.6568054 L206.792364,37.2320118 C206.792364,38.4733265 206.852467,39.4616343 206.97006,40.1942998 L206.97006,40.1942998 Z M204.126925,35.92481 L204.126925,34.0088106 C201.106093,33.9561008 199.595678,34.7915504 199.595678,36.5125237 C199.595678,37.1608537 199.768147,37.6457834 200.120926,37.9699483 C200.473705,38.2941133 200.923171,38.4548781 201.458872,38.4548781 C202.059903,38.4548781 202.621735,38.2624875 203.133918,37.8803418 C203.648714,37.4955606 203.964908,37.0079954 204.082501,36.4097397 C204.111246,36.2753298 204.126925,36.1119296 204.126925,35.92481 L204.126925,35.92481 Z" id="Fill-19" fill="#FFFFFF"></path>
                    <path d="M222.531523,40.1942998 L220.101269,40.1942998 L219.973223,38.1992358 L219.897441,38.1992358 C219.121328,39.7172766 217.799061,40.476297 215.941093,40.476297 C214.456809,40.476297 213.220777,39.8885833 212.240836,38.7131558 C211.260895,37.5377284 210.772231,36.0117811 210.772231,34.1379494 C210.772231,32.1270724 211.302706,30.4983411 212.368882,29.254391 C213.401086,28.0947765 214.665863,27.5149692 216.171052,27.5149692 C217.825193,27.5149692 218.98283,28.0763281 219.64135,29.2016813 L219.693614,29.2016813 L219.693614,22.0700519 L222.434835,22.0700519 L222.434835,36.8472306 C222.434835,38.0569194 222.466193,39.1717307 222.531523,40.1942998 L222.531523,40.1942998 Z M219.693614,34.9549506 L219.693614,32.8834574 C219.693614,32.5250311 219.667482,32.2351274 219.617831,32.0137465 C219.463654,31.3496036 219.131781,30.7908803 218.627438,30.3402119 C218.117869,29.8895435 217.503772,29.6628916 216.795602,29.6628916 C215.77385,29.6628916 214.974218,30.0713921 214.386253,30.8910288 C213.803515,31.7106654 213.508226,32.756954 213.508226,34.0351654 C213.508226,35.2633026 213.787836,36.2595169 214.349669,37.0264438 C214.94286,37.8434449 215.742492,38.2519455 216.743338,38.2519455 C217.642271,38.2519455 218.360894,37.9119676 218.907048,37.2293763 C219.434909,36.5994948 219.693614,35.8404744 219.693614,34.9549506 L219.693614,34.9549506 Z" id="Fill-20" fill="#FFFFFF"></path>
                    <path d="M245.953418,33.8796717 C245.953418,35.7904001 245.412491,37.3558797 244.330636,38.5840169 C243.196518,39.8464155 241.696555,40.476297 239.817681,40.476297 C238.011977,40.476297 236.572117,39.8727704 235.495488,38.6604461 C234.424086,37.4507573 233.888385,35.92481 233.888385,34.0852397 C233.888385,32.1613338 234.439765,30.5826767 235.547752,29.357175 C236.655738,28.1316733 238.145249,27.5176047 240.024122,27.5176047 C241.829827,27.5176047 243.285366,28.1211314 244.3829,29.3308201 C245.42817,30.5062476 245.953418,32.0242884 245.953418,33.8796717 L245.953418,33.8796717 Z M243.115509,33.9692782 C243.115509,32.8228412 242.869871,31.8398043 242.381207,31.0201677 C241.803695,30.0292243 240.988384,29.5337527 239.922208,29.5337527 C238.824674,29.5337527 237.988458,30.0292243 237.410946,31.0201677 C236.919669,31.8398043 236.676644,32.8386541 236.676644,34.0193525 C236.676644,35.1657896 236.922282,36.1488264 237.410946,36.9684631 C238.004137,37.9594064 238.829901,38.4548781 239.896076,38.4548781 C240.941347,38.4548781 241.764497,37.9514999 242.355075,36.9421082 C242.859418,36.1066586 243.115509,35.1157153 243.115509,33.9692782 L243.115509,33.9692782 Z" id="Fill-21" fill="#FFFFFF"></path>
                    <path d="M260.678664,40.1942998 L257.942669,40.1942998 L257.942669,33.0784834 C257.942669,30.8857578 257.116906,29.789395 255.457539,29.789395 C254.644841,29.789395 253.988934,30.0898406 253.481978,30.6933672 C252.975022,31.2968939 252.721544,32.0084755 252.721544,32.8228412 L252.721544,40.1916644 L249.980322,40.1916644 L249.980322,31.3206132 C249.980322,30.2295214 249.948964,29.0461875 249.883635,27.7653405 L252.287757,27.7653405 L252.415802,29.7076949 L252.491584,29.7076949 C252.813005,29.1041682 253.288603,28.6060611 253.910539,28.2081025 C254.655294,27.7442566 255.483671,27.5096982 256.395669,27.5096982 C257.542853,27.5096982 258.499276,27.8839375 259.25971,28.6350514 C260.208293,29.5548366 260.678664,30.9279256 260.678664,32.751683 L260.678664,40.1942998" id="Fill-22" fill="#FFFFFF"></path>
                    <path d="M279.109394,29.8394692 L276.093789,29.8394692 L276.093789,35.8747357 C276.093789,37.4085895 276.62949,38.1755164 277.69044,38.1755164 C278.181717,38.1755164 278.589372,38.1333486 278.910793,38.0463775 L278.981348,40.1415901 C278.440421,40.3471581 277.729637,40.4499421 276.854223,40.4499421 C275.772368,40.4499421 274.930926,40.1178707 274.322056,39.4537278 C273.710573,38.789585 273.407444,37.6721383 273.407444,36.1040232 L273.407444,29.8394692 L271.606966,29.8394692 L271.606966,27.7706115 L273.407444,27.7706115 L273.407444,25.4935503 L276.091176,24.6765491 L276.091176,27.767976 L279.106781,27.767976 L279.106781,29.8394692 L279.109394,29.8394692" id="Fill-23" fill="#FFFFFF"></path>
                    <path d="M293.607294,40.1942998 L290.866072,40.1942998 L290.866072,33.1311932 C290.866072,30.9042062 290.040309,29.789395 288.386168,29.789395 C287.116165,29.789395 286.248591,30.4350894 285.772993,31.7264783 C285.691984,31.9979336 285.644947,32.330005 285.644947,32.7200571 L285.644947,40.1916644 L282.908952,40.1916644 L282.908952,22.0700519 L285.644947,22.0700519 L285.644947,29.5574721 L285.69721,29.5574721 C286.559559,28.194925 287.795591,27.5149692 289.397468,27.5149692 C290.531586,27.5149692 291.469716,27.8892085 292.214471,28.6403224 C293.142149,29.5759205 293.607294,30.9674579 293.607294,32.8070282 L293.607294,40.1942998" id="Fill-24" fill="#FFFFFF"></path>
                    <path d="M308.5625,33.394742 C308.5625,33.8902136 308.525915,34.3066206 308.460586,34.6465985 L300.247374,34.6465985 C300.283958,35.8747357 300.675935,36.8103338 301.436369,37.4586638 C302.131474,38.038471 303.027793,38.3283747 304.125327,38.3283747 C305.340454,38.3283747 306.44844,38.1333486 307.446674,37.7406609 L307.875234,39.6592959 C306.707145,40.1705804 305.332614,40.4262227 303.74119,40.4262227 C301.833572,40.4262227 300.330996,39.8595929 299.243914,38.7263333 C298.151607,37.5930736 297.610679,36.0723973 297.610679,34.1643043 C297.610679,32.2904727 298.115022,30.730264 299.131548,29.4863139 C300.192497,28.1580282 301.627131,27.4938853 303.438062,27.4938853 C305.209795,27.4938853 306.555581,28.1580282 307.464966,29.4863139 C308.199268,30.5405089 308.5625,31.8450753 308.5625,33.394742 L308.5625,33.394742 Z M305.949324,32.6805248 C305.970229,31.8608882 305.78992,31.1545775 305.418849,30.5589573 C304.943251,29.7920305 304.219401,29.4072493 303.23946,29.4072493 C302.345754,29.4072493 301.616678,29.7814885 301.060072,30.5326025 C300.605379,31.1308581 300.336222,31.8450753 300.247374,32.6805248 L305.949324,32.6805248 L305.949324,32.6805248 Z" id="Fill-25" fill="#FFFFFF"></path>
                </g>
            </g>
        </g>
    </g>
</svg>