<?xml version="1.0" encoding="UTF-8" standalone="no"?>
<svg width="318px" height="115px" viewBox="0 0 318 115" version="1.1" xmlns="http://www.w3.org/2000/svg" xmlns:xlink="http://www.w3.org/1999/xlink" xmlns:sketch="http://www.bohemiancoding.com/sketch/ns">
    <!-- Generator: Sketch 3.3 (11970) - http://www.bohemiancoding.com/sketch -->
    <title>Group 2</title>
    <desc>Created with Sketch.</desc>
    <defs>
        <linearGradient x1="60.0995717%" y1="91.9797552%" x2="33.5000976%" y2="-59.2459079%" id="linearGradient-1">
            <stop stop-color="#D7E69D" offset="0%"></stop>
            <stop stop-color="#94C4AA" offset="44.56%"></stop>
            <stop stop-color="#01A4B6" offset="100%"></stop>
        </linearGradient>
        <linearGradient x1="-31.9859505%" y1="-128.818008%" x2="80.4721996%" y2="114.258403%" id="linearGradient-2">
            <stop stop-color="#ED277B" offset="0%"></stop>
            <stop stop-color="#EE2F7C" offset="1.92%"></stop>
            <stop stop-color="#F7BD81" offset="70.39%"></stop>
            <stop stop-color="#FEEB74" offset="100%"></stop>
        </linearGradient>
        <linearGradient x1="50.9068572%" y1="74.7179969%" x2="-0.00833083431%" y2="-29.4385912%" id="linearGradient-3">
            <stop stop-color="#89CFBD" offset="0%"></stop>
            <stop stop-color="#7DBEBB" offset="9.07%"></stop>
            <stop stop-color="#457CAC" offset="53.96%"></stop>
            <stop stop-color="#1C5AA2" offset="85.23%"></stop>
            <stop stop-color="#084D9F" offset="100%"></stop>
        </linearGradient>
        <linearGradient x1="119.297308%" y1="35.6799782%" x2="-22.9911292%" y2="61.1851255%" id="linearGradient-4">
            <stop stop-color="#F04A2B" offset="0%"></stop>
            <stop stop-color="#B54F6B" offset="47.04%"></stop>
            <stop stop-color="#8B5191" offset="83.53%"></stop>
            <stop stop-color="#7851A1" offset="100%"></stop>
        </linearGradient>
    </defs>
    <g id="Welcome" stroke="none" stroke-width="1" fill="none" fill-rule="evenodd" sketch:type="MSPage">
        <g id="iOS-splash-v2" sketch:type="MSArtboardGroup" transform="translate(-244.000000, -495.000000)">
            <g id="google-play" sketch:type="MSLayerGroup" transform="translate(244.000000, 495.000000)">
                <g id="Group-2" sketch:type="MSShapeGroup">
                    <path d="M317.010152,102.921879 C317.010152,109.253458 312.933434,114.382156 307.891052,114.382156 L9.46529648,114.382156 C4.42529316,114.382156 0.334304153,109.253458 0.334304153,102.921879 L0.334304153,11.5299091 C0.334304153,5.20132268 4.42529316,0.0546708006 9.46529648,0.0546708006 L307.888674,0.0546708006 C312.933434,0.0546708006 317.007774,5.20132268 317.007774,11.5299091 L317.010152,102.921879" id="Fill-26" fill="#000000"></path>
                    <g id="Group" transform="translate(79.114661, 48.154366)" fill="#FFFFFF">
                        <g id="Shape">
                            <path d="M133.216108,31.2838728 L130.994905,33.3933946 C130.484746,33.6745463 129.974588,34.0087455 129.46443,34.2403862 C127.925191,34.9459178 126.359654,35.1227427 124.96943,35.1227427 C123.484537,35.1227427 121.165159,35.025489 118.796693,33.2979091 C115.50258,30.9602831 114.066775,26.9428199 114.066775,23.4381491 C114.066775,16.184789 119.922196,12.6306072 124.69419,12.6306072 C126.363161,12.6306072 128.075959,13.0532189 129.46969,13.9408802 C131.787315,15.4845622 132.386882,17.495062 132.719975,18.5701578 L121.81732,23.0137692 L118.24446,23.2931526 C119.40152,29.2362397 123.391622,32.6931677 127.797213,32.6931677 C129.999132,32.6931677 131.63304,31.9717219 133.131958,31.2237523 C133.130205,31.2255205 133.431742,31.0681463 133.216108,31.2838728 L133.216108,31.2838728 Z M126.6384,19.4578191 C127.523726,19.1324612 127.984797,18.8513095 127.984797,18.2005936 C127.984797,16.3315537 125.889818,14.1778257 123.389868,14.1778257 C121.53682,14.1778257 118.05863,15.6313269 118.05863,20.6867526 C118.05863,21.4718555 118.151545,22.3135423 118.198879,23.1552291 L126.6384,19.4578191 L126.6384,19.4578191 Z"></path>
                            <path d="M110.422037,30.9196133 C110.422037,32.737374 110.744612,33.0202939 112.268073,33.1652904 C113.062237,33.2590076 113.854647,33.2996774 114.641798,33.3969311 L112.925493,34.4242841 L104.755952,34.4242841 C105.827109,33.0238304 106.009434,32.8841387 106.009434,31.9522711 L106.009434,30.9036991 L105.991902,3.09620513 L102.382228,3.09620513 L105.853406,1.40752672 L112.483707,1.40752672 C111.047901,2.2474453 110.616634,2.7567012 110.430803,4.39233212 L110.422037,30.9196133 L110.422037,30.9196133 Z"></path>
                            <path d="M97.7504836,14.9257953 C98.8128745,15.8099201 101.035831,17.6824965 101.035831,21.23491 C101.035831,24.6971428 99.1003863,26.3310055 97.1474102,27.8782239 C96.5478431,28.4865018 95.848348,29.1478272 95.848348,30.1698755 C95.848348,31.2025333 96.5478431,31.7613002 97.0544948,32.1839118 L98.732231,33.4853436 C100.764097,35.2182282 102.624158,36.8114212 102.624158,40.0384768 C102.624158,44.4378819 98.4043975,48.872652 90.4259468,48.872652 C83.7044835,48.872652 80.4559515,45.6491329 80.4559515,42.1886683 C80.4559515,40.5017582 81.2869305,38.1163894 84.0288107,36.4807585 C86.9056812,34.7089723 90.7993615,34.4702586 92.8873278,34.3341034 C92.235167,33.4853436 91.491844,32.595914 91.491844,31.1477175 C91.491844,30.3537734 91.7302684,29.8798825 91.9564209,29.3228839 C91.4497691,29.3723949 90.9396111,29.4254424 90.4732811,29.4254424 C85.5540254,29.4254424 82.7700703,25.7191911 82.7700703,22.0783651 C82.7700703,19.924637 83.7465584,17.5410365 85.7416093,15.8099201 C88.3853148,13.613754 91.5391783,13.2335804 94.0391279,13.2335804 L103.595387,13.2335804 L100.629107,14.9257953 L97.7504836,14.9257953 L97.7504836,14.9257953 Z M94.463383,35.6921191 C94.0829559,35.6443764 93.8532971,35.6443764 93.3974858,35.6443764 C92.9784901,35.6443764 90.4732811,35.7380936 88.5325769,36.3941142 C87.5087546,36.7742879 84.5407219,37.8900534 84.5407219,41.2125945 C84.5407219,44.5280626 87.7436727,46.9222726 92.6979908,46.9222726 C97.1509165,46.9222726 99.5158758,44.7685446 99.5158758,41.8721516 C99.5123695,39.4814781 97.9836486,38.2207161 94.463383,35.6921191 L94.463383,35.6921191 Z M95.7957544,26.8031282 C96.8704172,25.7227276 96.9615795,24.2338614 96.9615795,23.3851016 C96.9615795,20.023659 94.973541,14.782567 91.1184294,14.782567 C89.9157888,14.782567 88.6132204,15.3908449 87.8716505,16.3315537 C87.091512,17.3076275 86.8565938,18.571926 86.8565938,19.7849453 C86.8565938,22.9165154 88.665814,28.1134011 92.6489034,28.1134011 C93.8129753,28.1134011 95.0629501,27.5422565 95.7957544,26.8031282 L95.7957544,26.8031282 Z"></path>
                            <path d="M68.9993101,35.0307938 C61.6274391,35.0307938 57.6846715,29.2415444 57.6846715,24.0004525 C57.6846715,17.8752357 62.6424958,12.6323755 69.6935458,12.6323755 C76.5096776,12.6323755 80.7802788,18.0149274 80.7802788,23.6680215 C80.7802788,29.1867287 76.5605181,35.0307938 68.9993101,35.0307938 L68.9993101,35.0307938 Z M74.7986322,31.2449713 C75.9206292,29.7490321 76.1906097,27.8817604 76.1906097,26.058695 C76.1906097,21.9404416 74.2446462,14.0841084 68.4926583,14.0841084 C66.9639374,14.0841084 65.4246978,14.6870816 64.3149726,15.6719966 C62.500493,17.3076275 62.179672,19.3623336 62.179672,21.3816747 C62.179672,26.0021111 64.4447035,33.6250353 70.0669604,33.6250353 C71.8796868,33.6250353 73.7292288,32.7409105 74.7986322,31.2449713 L74.7986322,31.2449713 Z"></path>
                            <path d="M44.3188821,35.0307938 C36.9452579,35.0307938 33.0095028,29.2415444 33.0095028,24.0004525 C33.0095028,17.8752357 37.9708333,12.6323755 45.0183771,12.6323755 C51.8327558,12.6323755 56.0963445,18.0149274 56.0963445,23.6680215 C56.0963445,29.1867287 51.8835963,35.0307938 44.3188821,35.0307938 L44.3188821,35.0307938 Z M50.1199572,31.2449713 C51.2314355,29.7490321 51.5101817,27.8817604 51.5101817,26.058695 C51.5101817,21.9404416 49.5589587,14.0841084 43.8122303,14.0841084 C42.27825,14.0841084 40.7530353,14.6870816 39.641557,15.6719966 C37.8253243,17.3076275 37.5062564,19.3623336 37.5062564,21.3816747 C37.5062564,26.0021111 39.7783004,33.6250353 45.3900386,33.6250353 C47.202765,33.6250353 49.0505538,32.7409105 50.1199572,31.2449713 L50.1199572,31.2449713 Z"></path>
                            <path d="M30.0625075,33.4075406 L23.8441897,34.8433593 C21.3267089,35.2465202 19.0651836,35.5984019 16.6704213,35.5984019 C4.67907817,35.5984019 0.108693461,26.6952649 0.108693461,19.7265931 C0.108693461,11.2177758 6.58296686,3.32784584 17.6696999,3.32784584 C20.0136217,3.32784584 22.2716407,3.67442277 24.3280509,4.2384944 C27.5853485,5.16328897 29.1105632,6.30204174 30.0625075,6.96867186 L26.4493265,10.4309047 L24.9258649,10.7704086 L26.0110464,9.02691445 C24.5419316,7.57871799 21.83862,4.90335627 16.7089899,4.90335627 C9.84903004,4.90335627 4.67557193,10.1603625 4.67557193,17.8416389 C4.67557193,26.0852188 10.5853406,33.84253 20.0574497,33.84253 C22.843158,33.84253 24.2754573,33.2784584 25.5745194,32.7532882 L25.5745194,25.6838261 L19.0108369,26.0374761 L22.4907808,24.1542902 L31.701675,24.1542902 L30.5726655,25.2488367 C30.2693757,25.5087694 30.230807,25.5954136 30.1449042,25.9490636 C30.099323,26.3504562 30.0572481,27.616523 30.0572481,28.0638901 L30.0572481,33.4075406 L30.0625075,33.4075406 L30.0625075,33.4075406 Z"></path>
                        </g>
                        <g transform="translate(143.755867, 3.536499)" id="Shape">
                            <path d="M2.8277831,27.9471857 L2.8277831,39.8616518 L0.482108092,39.8616518 L0.482108092,9.5450116 L2.8277831,9.5450116 L2.8277831,12.9948667 C4.35475091,10.7651039 7.1474716,8.9968542 10.3889911,8.9968542 C16.2040913,8.9968542 20.1258214,13.4475386 20.1258214,20.4904769 C20.1258214,27.489209 16.2075975,32.0318424 10.3889911,32.0318424 C7.32979612,32.0353789 4.58791592,30.4439542 2.8277831,27.9471857 L2.8277831,27.9471857 Z M17.6065875,20.4940134 C17.6065875,15.1839597 14.8629542,11.134668 9.99453903,11.134668 C6.97215957,11.134668 4.08477038,13.5288781 2.8277831,15.6171809 L2.8277831,25.3213349 C4.08477038,27.4131743 6.97215957,29.897565 9.99453903,29.897565 C14.8629542,29.897565 17.6065875,25.8129083 17.6065875,20.4940134 L17.6065875,20.4940134 Z"></path>
                            <path d="M23.3287723,31.490758 L23.3287723,1.17588602 L25.6779535,1.17588602 L25.6779535,31.490758 L23.3287723,31.490758 L23.3287723,31.490758 Z"></path>
                            <path d="M51.995796,37.9006629 C52.4954353,38.1269989 53.350958,38.2666906 53.8944253,38.2666906 C55.3267246,38.2666906 56.3295095,37.6725587 57.2236008,35.5824876 L58.9381525,31.6728877 L49.6974552,9.5450116 L52.3131108,9.5450116 L60.2407209,28.721679 L68.0911938,9.5450116 L70.745418,9.5450116 L59.4728542,36.314543 C58.3052761,39.0747807 56.4644997,40.4009679 53.9365002,40.4009679 C53.1773991,40.4009679 52.1798736,40.2630445 51.5925783,40.082683 L51.995796,37.9006629 L51.995796,37.9006629 Z"></path>
                            <path d="M45.1428486,31.4235645 C44.9850678,30.6596806 44.8693618,29.9912823 44.7834589,29.4307471 C44.711581,28.8755167 44.6730124,28.2990674 44.6730124,27.7190815 C43.8683301,28.9108817 42.7288019,29.9011015 41.2754652,30.6826679 C39.8186222,31.4660025 38.4354102,31.8532491 36.5350278,31.8532491 C34.250712,31.8532491 32.4800604,31.2891775 31.2108013,30.1362787 C29.9485547,28.9869165 29.3139251,27.4290885 29.3139251,25.4592584 C29.3139251,23.4894283 30.2343133,21.8926989 32.066324,20.6761431 C33.9000879,19.4472096 36.2685535,18.8407 39.2015238,18.8407 L44.6730124,18.8407 L44.6730124,16.1105225 C44.6730124,14.5367803 44.1400638,13.3060786 43.0811791,12.4078078 C42.0187882,11.5113052 40.5251297,11.0604015 38.5896848,11.0604015 C36.8190333,11.0604015 35.3849808,11.4724037 34.29454,12.2787255 C33.2128647,13.1027299 32.6658912,14.1212417 32.6658912,15.3501752 L30.2641163,15.3501752 L30.2185352,15.2334707 C30.1308792,13.5748525 30.8812147,12.1213513 32.4818136,10.8676623 C34.0683875,9.61043683 36.1581069,8.98270821 38.7246751,8.98270821 C41.2772183,8.98270821 43.3494065,9.60513208 44.9096836,10.8411386 C46.4682076,12.0665356 47.2483461,13.8418582 47.2483461,16.1600335 L47.2483461,26.9852579 C47.2483461,27.7615195 47.2851617,28.5130256 47.3815833,29.2450809 C47.4832643,29.9789045 47.6375388,30.7091916 47.8514195,31.4182597 L45.1428486,31.4235645 L45.1428486,31.4235645 Z M36.8190333,29.7012893 C38.8123311,29.7012893 40.2428773,29.2521539 41.7084859,28.3627243 C43.1600695,27.4803678 44.1523356,26.3310055 44.6695061,24.9358565 L44.6695061,20.7203494 L39.1717208,20.7203494 C37.0714826,20.7203494 35.3358935,21.1907038 33.9649534,22.1349491 C32.5957664,23.0774261 31.8980245,24.2197154 31.8980245,25.5476709 C31.8980245,26.7995917 32.3398108,27.7968845 33.2128647,28.5554636 C34.0929311,29.3211156 35.2920655,29.7012893 36.8190333,29.7012893 L36.8190333,29.7012893 Z"></path>
                        </g>
                    </g>
                    <g id="Group" transform="translate(79.114661, 19.862371)" fill="#FFFFFF">
                        <path d="M0.206868199,8.13571663 C0.206868199,3.47814706 3.63947781,0.480963904 7.90657271,0.480963904 C10.765912,0.480963904 12.6364914,1.85666213 13.8005633,3.54180404 L11.712597,4.7618963 C10.9201866,3.65497202 9.53346838,2.78852969 7.90657271,2.78852969 C5.00340543,2.78852969 2.84706742,5.007683 2.84706742,8.13394838 C2.84706742,11.219544 5.00340543,13.4811353 7.90657271,13.4811353 C9.40198435,13.4811353 10.7203308,12.7932862 11.3812572,12.1531798 L11.3812572,9.86506478 L6.98267829,9.86506478 L6.98267829,7.58048624 L13.9320473,7.58048624 L13.9320473,13.1062664 C12.5032542,14.7259831 10.4345722,15.8134566 7.90481959,15.8134566 C3.63947781,15.8134566 0.206868199,12.7738355 0.206868199,8.13571663 L0.206868199,8.13571663 Z" id="Shape"></path>
                        <path d="M17.1174669,15.5252319 L17.1174669,0.724982355 L27.1698589,0.724982355 L27.1698589,3.0095609 L19.6910476,3.0095609 L19.6910476,6.82544364 L27.0155844,6.82544364 L27.0155844,9.11002218 L19.6910476,9.11002218 L19.6910476,13.2371169 L27.1698589,13.2371169 L27.1698589,15.5234637 L17.1174669,15.5252319 L17.1174669,15.5252319 Z" id="Shape"></path>
                        <path d="M34.2910337,15.5252319 L34.2910337,3.01132915 L29.8486268,3.01132915 L29.8486268,0.726750605 L41.3070213,0.726750605 L41.3070213,3.01132915 L36.8646144,3.01132915 L36.8646144,15.5252319 L34.2910337,15.5252319 L34.2910337,15.5252319 Z" id="Shape"></path>
                        <path d="M50.2514413,15.5252319 L50.2514413,0.724982355 L52.8250219,0.724982355 L52.8250219,15.5252319 L50.2514413,15.5252319 L50.2514413,15.5252319 Z" id="Shape"></path>
                        <path d="M59.9900247,15.5252319 L59.9900247,3.01132915 L55.5476178,3.01132915 L55.5476178,0.726750605 L67.0060123,0.726750605 L67.0060123,3.01132915 L62.5636054,3.01132915 L62.5636054,15.5252319 L59.9900247,15.5252319 L59.9900247,15.5252319 Z" id="Shape"></path>
                        <path d="M75.3140496,8.13571663 C75.3140496,3.72039726 78.4153194,0.480963904 82.8156515,0.480963904 C87.1914398,0.480963904 90.3137471,3.72039726 90.3137471,8.13571663 C90.3137471,12.551036 87.1914398,15.7904693 82.8156515,15.7904693 C78.4153194,15.7904693 75.3140496,12.551036 75.3140496,8.13571663 L75.3140496,8.13571663 Z M87.6770542,8.13571663 C87.6770542,5.07664474 85.7626468,2.79029794 82.8191577,2.79029794 C79.8493719,2.79029794 77.957755,5.07487649 77.957755,8.13571663 C77.957755,11.177106 79.8493719,13.4829036 82.8191577,13.4829036 C85.7626468,13.4829036 87.6770542,11.177106 87.6770542,8.13571663 L87.6770542,8.13571663 Z" id="Shape"></path>
                        <path d="M103.548053,15.5252319 L95.8939292,4.94225776 L95.8939292,15.5252319 L93.3221016,15.5252319 L93.3221016,0.724982355 L95.9623009,0.724982355 L103.458643,10.9737573 L103.458643,0.724982355 L106.03573,0.724982355 L106.03573,15.5252319 L103.548053,15.5252319 L103.548053,15.5252319 Z" id="Shape"></path>
                    </g>
                    <g id="Group" transform="translate(23.014810, 46.386116)">
                        <path d="M25.5780257,24.5645241 L33.1041713,16.9751966 L33.1024182,16.9751966 L25.5780257,24.5645241 L1.56203022,0.339503932 L1.5602771,0.339503932 L25.5780257,24.5680606 L1.52170845,48.830214 L25.5780257,24.5680606 L33.1374806,32.1909848 L33.1409868,32.1909848 L25.5780257,24.5645241 Z" id="Shape"></path>
                        <path d="M33.1024182,16.9751966 L3.77972744,0.712604608 C2.95050152,0.254627949 2.1808817,0.14853297 1.56203022,0.341272182 L25.5797788,24.5645241 L33.1024182,16.9751966 L33.1024182,16.9751966 Z" id="Shape" fill="url(#linearGradient-1)"></path>
                        <path d="M33.1409868,32.1909848 L43.1495508,26.6369127 C45.1796641,25.5052329 45.1796641,23.6680215 43.1495508,22.545183 L33.1041713,16.9751966 L25.5797788,24.5645241 L33.1409868,32.1909848 L33.1409868,32.1909848 Z" id="Shape" fill="url(#linearGradient-2)"></path>
                        <path d="M1.5602771,0.339503932 C0.669691968,0.620655626 0.0911622574,1.53307244 0.0911622574,2.91053892 L0.0964216184,46.2715568 C0.0964216184,47.633109 0.657420125,48.5296116 1.52170845,48.8284458 L25.5797788,24.5627558 L1.5602771,0.339503932 L1.5602771,0.339503932 Z" id="Shape" fill="url(#linearGradient-3)"></path>
                        <path d="M1.52170845,48.830214 C2.14757241,49.0441722 2.9312172,48.9416137 3.77972744,48.4747958 L33.1392337,32.1909848 L25.5797788,24.5662923 L1.52170845,48.830214 L1.52170845,48.830214 Z" id="Shape" fill="url(#linearGradient-4)"></path>
                    </g>
                </g>
            </g>
        </g>
    </g>
</svg>
